<svg width="56" height="56" viewBox="0 0 56 56" fill="none" xmlns="http://www.w3.org/2000/svg">
<path d="M27.999 4.49805C28.1575 4.49805 28.3123 4.54842 28.4404 4.6416C28.5685 4.73476 28.664 4.86595 28.7129 5.0166V5.01758L34.0068 21.3145L34.2314 22.0049H52.5C52.6601 22.0048 52.8164 22.0564 52.9453 22.1514C53.0742 22.2464 53.1694 22.3803 53.2168 22.5332C53.2642 22.6862 53.2616 22.8507 53.209 23.002C53.1695 23.1154 53.1029 23.2169 53.0166 23.2988L52.9238 23.374L38.7002 33.1191L38.0752 33.5469L38.3174 34.2637L43.8008 50.5098C43.8388 50.6224 43.8496 50.7427 43.832 50.8604C43.8145 50.978 43.7685 51.0898 43.6992 51.1865C43.63 51.2831 43.5393 51.3626 43.4336 51.417C43.3278 51.4715 43.2098 51.4998 43.0908 51.5H43.0889C42.9707 51.5004 42.8547 51.4724 42.75 51.4199L42.6494 51.3594L28.5859 41.1641L27.999 40.7383L27.4121 41.1641L13.3457 51.3623C13.2169 51.4557 13.0614 51.5055 12.9023 51.5049C12.7433 51.5043 12.5881 51.4527 12.46 51.3584C12.3322 51.2641 12.2372 51.1319 12.1895 50.9805C12.1417 50.8287 12.1434 50.6653 12.1943 50.5146L12.1953 50.5137L17.6807 34.2637L17.9229 33.5479L17.2988 33.1191L3.08008 23.3691V23.3682L2.9873 23.2939C2.90112 23.2121 2.83546 23.1103 2.7959 22.9971C2.7432 22.846 2.73998 22.6812 2.78711 22.5283C2.83428 22.3756 2.92914 22.2416 3.05762 22.1465C3.15394 22.0752 3.26569 22.0289 3.38281 22.0098L3.50195 22H21.7676L21.9922 21.3086L27.2861 5.01758V5.0166C27.335 4.86594 27.4305 4.73474 27.5586 4.6416C27.6867 4.54853 27.8407 4.49811 27.999 4.49805Z" stroke="#112211" stroke-width="2"/>
</svg>
